<svg width="236" height="33" viewBox="0 0 236 33" fill="none" xmlns="http://www.w3.org/2000/svg">
<path id="Union" fill-rule="evenodd" clip-rule="evenodd" d="M46.728 29.0816H34.2765C38.2814 26.1607 40.887 21.4235 40.887 16.0714C40.887 7.19643 33.7229 0 24.8877 0H0V19.3878H3.04748V3.06122H15.499C11.4941 5.98214 8.88847 10.7194 8.88847 16.0714C8.88847 24.9464 16.0526 32.1429 24.8877 32.1429H49.7754V12.7551H46.728V29.0816ZM11.9359 16.0714C11.9359 8.89796 17.7465 3.06122 24.8877 3.06122C32.029 3.06122 37.8395 8.89796 37.8395 16.0714C37.8395 16.4643 37.8192 16.852 37.7836 17.2372L31.6658 11.0893L23.6433 19.148L19.1661 14.6505L12.8883 20.9566C12.2765 19.4475 11.9385 17.7982 11.9385 16.0714H11.9359ZM13.9676 23.051C13.7717 22.7428 13.5883 22.4257 13.4181 22.1005C13.5884 22.4255 13.7719 22.7425 13.9676 23.051ZM14.0031 23.1097C14.1403 23.3214 14.2825 23.5306 14.4298 23.7347C14.28 23.5306 14.1403 23.3214 14.0031 23.1097ZM14.4298 23.7372L19.1635 18.9821L21.4872 21.3163L16.6875 26.1378C15.8367 25.4388 15.0799 24.6301 14.4298 23.7372ZM18.6429 27.4694C18.8639 27.5918 19.0899 27.7092 19.321 27.8214C19.0899 27.7117 18.8664 27.5944 18.6429 27.4694ZM19.321 27.8214L31.6633 15.4235L36.9684 20.7526C36.9959 20.6815 37.0227 20.6105 37.0489 20.5391C35.2324 25.5204 30.468 29.0867 24.8852 29.0867C22.8942 29.0867 21.0073 28.6327 19.321 27.8214ZM49.7754 0H40.887V3.06122H49.7754V0ZM125.376 22.3504C126.463 22.9744 127.68 23.2864 129.026 23.2864C130.372 23.2864 131.579 22.9744 132.649 22.3504C133.719 21.7091 134.565 20.8424 135.186 19.7504C135.824 18.6584 136.144 17.4278 136.144 16.0584V4.20243C136.144 3.80376 136.023 3.48309 135.781 3.24043C135.54 2.99776 135.22 2.87643 134.824 2.87643C134.444 2.87643 134.125 2.99776 133.866 3.24043C133.624 3.48309 133.503 3.80376 133.503 4.20243V11.2224C132.917 10.4944 132.192 9.92243 131.329 9.50643C130.466 9.07309 129.526 8.85643 128.508 8.85643C127.248 8.85643 126.118 9.17709 125.117 9.81843C124.116 10.4424 123.323 11.3004 122.736 12.3924C122.167 13.4671 121.882 14.6891 121.882 16.0584C121.882 17.4278 122.192 18.6584 122.814 19.7504C123.452 20.8424 124.306 21.7091 125.376 22.3504ZM131.381 20.3224C130.691 20.7384 129.906 20.9464 129.026 20.9464C128.163 20.9464 127.378 20.7384 126.67 20.3224C125.98 19.8891 125.428 19.2998 125.014 18.5544C124.617 17.8091 124.418 16.9771 124.418 16.0584C124.418 15.1224 124.617 14.2904 125.014 13.5624C125.428 12.8344 125.98 12.2624 126.67 11.8464C127.378 11.4131 128.163 11.1964 129.026 11.1964C129.906 11.1964 130.691 11.4131 131.381 11.8464C132.071 12.2624 132.615 12.8344 133.012 13.5624C133.409 14.2904 133.607 15.1224 133.607 16.0584C133.607 16.9771 133.409 17.8091 133.012 18.5544C132.615 19.2998 132.071 19.8891 131.381 20.3224ZM116.404 23.2084C116.024 23.2084 115.705 23.0871 115.446 22.8444C115.205 22.5844 115.084 22.2638 115.084 21.8824V15.4864C115.084 14.4984 114.903 13.6924 114.54 13.0684C114.178 12.4444 113.686 11.9851 113.065 11.6904C112.461 11.3784 111.762 11.2224 110.968 11.2224C110.244 11.2224 109.588 11.3698 109.001 11.6644C108.415 11.9591 107.949 12.3578 107.604 12.8604C107.259 13.3458 107.086 13.9091 107.086 14.5504V21.8824C107.086 22.2638 106.965 22.5844 106.724 22.8444C106.482 23.0871 106.163 23.2084 105.766 23.2084C105.386 23.2084 105.067 23.0871 104.808 22.8444C104.567 22.5844 104.446 22.2638 104.446 21.8824V10.2864C104.446 9.88776 104.567 9.56709 104.808 9.32443C105.067 9.08176 105.386 8.96043 105.766 8.96043C106.163 8.96043 106.482 9.08176 106.724 9.32443C106.965 9.56709 107.086 9.88776 107.086 10.2864V10.5624C107.47 10.1829 107.91 9.85694 108.406 9.58443C109.321 9.08176 110.347 8.83043 111.486 8.83043C112.677 8.83043 113.738 9.09043 114.67 9.61043C115.619 10.1131 116.361 10.8584 116.896 11.8464C117.448 12.8344 117.724 14.0478 117.724 15.4864V21.8824C117.724 22.2638 117.595 22.5844 117.336 22.8444C117.094 23.0871 116.784 23.2084 116.404 23.2084ZM88.9728 22.3504C89.9736 22.9744 91.1038 23.2864 92.3635 23.2864C93.6231 23.2864 94.7534 22.9744 95.7542 22.3504C96.3711 21.9551 96.906 21.4775 97.3589 20.9176V21.8824C97.3589 22.2638 97.4797 22.5844 97.7213 22.8444C97.9801 23.0871 98.2994 23.2084 98.679 23.2084C99.0586 23.2084 99.3692 23.0871 99.6108 22.8444C99.8696 22.5844 99.999 22.2638 99.999 21.8824V16.0844C99.999 14.7151 99.6798 13.4844 99.0414 12.3924C98.4202 11.3004 97.5746 10.4424 96.5048 9.81843C95.435 9.17709 94.2271 8.85643 92.8812 8.85643C91.5352 8.85643 90.3187 9.17709 89.2316 9.81843C88.1618 10.4424 87.3076 11.3004 86.6692 12.3924C86.048 13.4844 85.7374 14.7151 85.7374 16.0844C85.7374 17.4538 86.0221 18.6844 86.5915 19.7764C87.1782 20.8511 87.972 21.7091 88.9728 22.3504ZM95.2365 20.3224C94.5463 20.7384 93.7612 20.9464 92.8812 20.9464C92.0184 20.9464 91.2333 20.7384 90.5258 20.3224C89.8356 19.8891 89.2834 19.3084 88.8693 18.5804C88.4724 17.8351 88.2739 17.0031 88.2739 16.0844C88.2739 15.1484 88.4724 14.3164 88.8693 13.5884C89.2834 12.8431 89.8356 12.2624 90.5258 11.8464C91.2333 11.4131 92.0184 11.1964 92.8812 11.1964C93.7612 11.1964 94.5463 11.4131 95.2365 11.8464C95.9268 12.2624 96.4703 12.8431 96.8672 13.5884C97.264 14.3164 97.4625 15.1484 97.4625 16.0844C97.4625 17.0031 97.264 17.8351 96.8672 18.5804C96.4703 19.3084 95.9268 19.8891 95.2365 20.3224ZM70.1037 22.9484C70.3453 23.1044 70.6041 23.1824 70.8802 23.1824C71.1736 23.1824 71.4324 23.1044 71.6567 22.9484C71.8983 22.7751 72.0536 22.5671 72.1226 22.3244L74.7855 12.8879L77.3251 22.3244C77.3942 22.5671 77.5495 22.7751 77.791 22.9484C78.0326 23.1044 78.2914 23.1824 78.5675 23.1824C78.8609 23.1824 79.1197 23.1044 79.344 22.9484C79.5683 22.7751 79.715 22.5671 79.784 22.3244L83.6148 10.7804C83.8046 10.2431 83.8132 9.80976 83.6406 9.48043C83.4681 9.13376 83.1402 8.96043 82.6571 8.96043C82.0014 8.96043 81.5527 9.35909 81.3111 10.1564L78.4721 19.0988L76.1345 9.94843C76.0655 9.65376 75.9188 9.41976 75.6945 9.24643C75.4874 9.05576 75.2113 8.96043 74.8662 8.96043C74.5039 8.96043 74.2191 9.05576 74.0121 9.24643C73.805 9.41976 73.6583 9.65376 73.5721 9.94843L70.9274 18.9227L68.1366 10.1564C67.9985 9.72309 67.8174 9.41976 67.593 9.24643C67.386 9.05576 67.1185 8.96043 66.7907 8.96043C66.2903 8.96043 65.9624 9.13376 65.8071 9.48043C65.6691 9.80976 65.6691 10.2431 65.8071 10.7804L69.6378 22.3244C69.7241 22.5671 69.8794 22.7751 70.1037 22.9484ZM147.975 23.2864C146.543 23.2864 145.266 22.9831 144.145 22.3764C143.04 21.7524 142.169 20.9031 141.53 19.8284C140.909 18.7364 140.599 17.4884 140.599 16.0844C140.599 14.6631 140.892 13.4151 141.479 12.3404C142.083 11.2484 142.911 10.3991 143.964 9.79243C145.016 9.16843 146.224 8.85643 147.587 8.85643C148.933 8.85643 150.089 9.15976 151.056 9.76643C152.022 10.3558 152.755 11.1791 153.256 12.2364C153.773 13.2764 154.032 14.4811 154.032 15.8504C154.032 16.1798 153.92 16.4571 153.696 16.6824C153.471 16.8904 153.187 16.9944 152.841 16.9944H142.999C143.094 17.5871 143.286 18.1331 143.575 18.6324C144.007 19.3778 144.602 19.9671 145.361 20.4004C146.12 20.8338 146.992 21.0504 147.975 21.0504C148.51 21.0504 149.054 20.9551 149.606 20.7644C150.175 20.5564 150.633 20.3224 150.978 20.0624C151.237 19.8718 151.513 19.7764 151.806 19.7764C152.117 19.7591 152.384 19.8458 152.609 20.0364C152.902 20.2964 153.057 20.5824 153.074 20.8944C153.092 21.2064 152.954 21.4751 152.66 21.7004C152.074 22.1684 151.34 22.5498 150.46 22.8444C149.597 23.1391 148.769 23.2864 147.975 23.2864ZM143.472 13.5364C143.265 13.9619 143.117 14.4212 143.028 14.9144H151.649C151.573 14.3376 151.418 13.8089 151.185 13.3284C150.857 12.6351 150.391 12.0891 149.787 11.6904C149.183 11.2918 148.45 11.0924 147.587 11.0924C146.604 11.0924 145.758 11.3091 145.051 11.7424C144.36 12.1758 143.834 12.7738 143.472 13.5364ZM160.505 14.2904V21.8824C160.505 22.2984 160.393 22.6191 160.169 22.8444C159.962 23.0698 159.643 23.1824 159.211 23.1824C158.797 23.1824 158.478 23.0784 158.253 22.8704C158.029 22.6451 157.917 22.3158 157.917 21.8824V10.2604C157.917 9.84443 158.029 9.52376 158.253 9.29843C158.478 9.07309 158.797 8.96043 159.211 8.96043C159.643 8.96043 159.962 9.07309 160.169 9.29843C160.393 9.50643 160.505 9.82709 160.505 10.2604V10.7407C160.928 10.2602 161.429 9.85745 162.007 9.53243C162.869 9.04709 163.818 8.80443 164.854 8.80443C165.889 8.80443 166.657 8.97776 167.157 9.32443C167.675 9.65376 167.873 10.0524 167.753 10.5204C167.701 10.7631 167.597 10.9538 167.442 11.0924C167.304 11.2138 167.14 11.2918 166.95 11.3264C166.76 11.3611 166.553 11.3524 166.329 11.3004C165.225 11.0751 164.232 11.0578 163.352 11.2484C162.472 11.4391 161.774 11.7944 161.256 12.3144C160.756 12.8344 160.505 13.4931 160.505 14.2904ZM176.173 23.2864C174.965 23.2864 173.844 23.1044 172.808 22.7404C171.79 22.3591 170.997 21.8824 170.427 21.3104C170.168 21.0331 170.056 20.7211 170.091 20.3744C170.142 20.0104 170.315 19.7158 170.608 19.4904C170.953 19.2131 171.29 19.1004 171.618 19.1524C171.963 19.1871 172.256 19.3344 172.498 19.5944C172.791 19.9238 173.257 20.2358 173.895 20.5304C174.551 20.8078 175.276 20.9464 176.07 20.9464C177.07 20.9464 177.83 20.7818 178.347 20.4524C178.882 20.1231 179.158 19.6984 179.176 19.1784C179.193 18.6584 178.943 18.2078 178.425 17.8264C177.925 17.4451 177.001 17.1331 175.656 16.8904C173.913 16.5438 172.644 16.0238 171.851 15.3304C171.074 14.6371 170.686 13.7878 170.686 12.7824C170.686 11.8984 170.945 11.1704 171.462 10.5984C171.98 10.0091 172.644 9.57576 173.455 9.29843C174.266 9.00376 175.112 8.85643 175.992 8.85643C177.131 8.85643 178.14 9.03843 179.02 9.40243C179.9 9.76643 180.599 10.2691 181.117 10.9104C181.358 11.1878 181.471 11.4824 181.453 11.7944C181.436 12.0891 181.289 12.3404 181.013 12.5484C180.737 12.7391 180.409 12.7998 180.03 12.7304C179.65 12.6611 179.331 12.5051 179.072 12.2624C178.641 11.8464 178.175 11.5604 177.674 11.4044C177.174 11.2484 176.596 11.1704 175.94 11.1704C175.181 11.1704 174.534 11.3004 173.999 11.5604C173.481 11.8204 173.222 12.2018 173.222 12.7044C173.222 13.0164 173.3 13.3024 173.455 13.5624C173.628 13.8051 173.956 14.0304 174.439 14.2384C174.922 14.4291 175.63 14.6198 176.561 14.8104C177.856 15.0704 178.874 15.3998 179.616 15.7984C180.375 16.1971 180.918 16.6651 181.246 17.2024C181.574 17.7224 181.738 18.3291 181.738 19.0224C181.738 19.8198 181.522 20.5391 181.091 21.1804C180.677 21.8218 180.056 22.3331 179.227 22.7144C178.416 23.0958 177.398 23.2864 176.173 23.2864ZM196.594 22.8444C196.853 23.0871 197.172 23.2084 197.552 23.2084C197.932 23.2084 198.242 23.0871 198.484 22.8444C198.743 22.5844 198.872 22.2638 198.872 21.8824V15.4864C198.872 14.0478 198.596 12.8344 198.044 11.8464C197.509 10.8584 196.767 10.1131 195.818 9.61043C194.886 9.09043 193.825 8.83043 192.634 8.83043C191.495 8.83043 190.469 9.08176 189.554 9.58443C189.058 9.85694 188.618 10.1829 188.234 10.5624V10.2864C188.234 9.88776 188.113 9.56709 187.872 9.32443C187.63 9.08176 187.311 8.96043 186.914 8.96043C186.534 8.96043 186.215 9.08176 185.956 9.32443C185.715 9.56709 185.594 9.88776 185.594 10.2864V21.8824C185.594 22.2638 185.715 22.5844 185.956 22.8444C186.215 23.0871 186.534 23.2084 186.914 23.2084C187.311 23.2084 187.63 23.0871 187.872 22.8444C188.113 22.5844 188.234 22.2638 188.234 21.8824V14.5504C188.234 13.9091 188.406 13.3458 188.752 12.8604C189.097 12.3578 189.563 11.9591 190.149 11.6644C190.736 11.3698 191.392 11.2224 192.116 11.2224C192.91 11.2224 193.609 11.3784 194.213 11.6904C194.834 11.9851 195.326 12.4444 195.688 13.0684C196.051 13.6924 196.232 14.4984 196.232 15.4864V21.8824C196.232 22.2638 196.353 22.5844 196.594 22.8444ZM209.656 23.2864C208.396 23.2864 207.266 22.9744 206.265 22.3504C205.264 21.7091 204.471 20.8511 203.884 19.7764C203.315 18.6844 203.03 17.4538 203.03 16.0844C203.03 14.7151 203.34 13.4844 203.962 12.3924C204.6 11.3004 205.454 10.4424 206.524 9.81843C207.611 9.17709 208.828 8.85643 210.174 8.85643C211.52 8.85643 212.727 9.17709 213.797 9.81843C214.867 10.4424 215.713 11.3004 216.334 12.3924C216.972 13.4844 217.292 14.7151 217.292 16.0844V21.8824C217.292 22.2638 217.162 22.5844 216.903 22.8444C216.662 23.0871 216.351 23.2084 215.971 23.2084C215.592 23.2084 215.273 23.0871 215.014 22.8444C214.772 22.5844 214.651 22.2638 214.651 21.8824V20.9176C214.198 21.4775 213.663 21.9551 213.047 22.3504C212.046 22.9744 210.916 23.2864 209.656 23.2864ZM210.174 20.9464C211.054 20.9464 211.839 20.7384 212.529 20.3224C213.219 19.8891 213.763 19.3084 214.16 18.5804C214.557 17.8351 214.755 17.0031 214.755 16.0844C214.755 15.1484 214.557 14.3164 214.16 13.5884C213.763 12.8431 213.219 12.2624 212.529 11.8464C211.839 11.4131 211.054 11.1964 210.174 11.1964C209.311 11.1964 208.526 11.4131 207.818 11.8464C207.128 12.2624 206.576 12.8431 206.162 13.5884C205.765 14.3164 205.566 15.1484 205.566 16.0844C205.566 17.0031 205.765 17.8351 206.162 18.5804C206.576 19.3084 207.128 19.8891 207.818 20.3224C208.526 20.7384 209.311 20.9464 210.174 20.9464ZM222.101 28.8764C222.36 29.1364 222.679 29.2664 223.058 29.2664C223.455 29.2664 223.774 29.1364 224.016 28.8764C224.258 28.6338 224.378 28.3218 224.378 27.9404V20.9204C224.982 21.6484 225.707 22.2291 226.553 22.6624C227.415 23.0784 228.356 23.2864 229.374 23.2864C230.634 23.2864 231.764 22.9744 232.765 22.3504C233.765 21.7091 234.551 20.8511 235.12 19.7764C235.707 18.6844 236 17.4538 236 16.0844C236 14.7151 235.681 13.4844 235.042 12.3924C234.421 11.3004 233.576 10.4424 232.506 9.81843C231.436 9.17709 230.219 8.85643 228.856 8.85643C227.51 8.85643 226.302 9.17709 225.233 9.81843C224.163 10.4424 223.317 11.3004 222.696 12.3924C222.075 13.4844 221.756 14.7151 221.738 16.0844V27.9404C221.738 28.3218 221.859 28.6338 222.101 28.8764ZM231.212 20.3224C230.521 20.7384 229.736 20.9464 228.856 20.9464C227.993 20.9464 227.208 20.7384 226.501 20.3224C225.811 19.8891 225.267 19.3084 224.87 18.5804C224.473 17.8351 224.275 17.0031 224.275 16.0844C224.275 15.1484 224.473 14.3164 224.87 13.5884C225.267 12.8431 225.811 12.2624 226.501 11.8464C227.208 11.4131 227.993 11.1964 228.856 11.1964C229.736 11.1964 230.521 11.4131 231.212 11.8464C231.902 12.2624 232.445 12.8431 232.842 13.5884C233.256 14.3164 233.463 15.1484 233.463 16.0844C233.463 17.0031 233.256 17.8351 232.842 18.5804C232.445 19.3084 231.902 19.8891 231.212 20.3224Z" fill="#F9F8FF"/>
</svg>
